<?xml version="1.0" encoding="UTF-8"?>
<svg id="Layer_2" data-name="Layer 2" xmlns="http://www.w3.org/2000/svg" viewBox="0 0 300 300">
  <defs>
    <style>
      .cls-1 {
        fill: #fff;
      }

      .cls-2 {
        fill: #5a423f;
      }
    </style>
  </defs>
  <g id="Layer_1-2" data-name="Layer 1">
    <rect class="cls-1" x="50" y="50" width="100" height="50" shape-rendering="crispEdges"/>
    <rect x="150" y="50" width="100" height="50" shape-rendering="crispEdges"/>
    <rect class="cls-1" x="50" y="100" width="100" height="50" shape-rendering="crispEdges"/>
    <rect x="150" y="100" width="100" height="50" shape-rendering="crispEdges"/>
    <rect class="cls-1" x="50" y="150" width="100" height="50" shape-rendering="crispEdges"/>
    <rect x="150" y="150" width="100" height="50" shape-rendering="crispEdges"/>
    <rect class="cls-1" x="50" y="200" width="100" height="50" shape-rendering="crispEdges"/>
    <rect x="150" y="200" width="100" height="50" shape-rendering="crispEdges"/>
    <g>
      <rect class="cls-2" width="300" height="50" shape-rendering="crispEdges"/>
      <rect class="cls-2" y="50" width="50" height="50" shape-rendering="crispEdges"/>
      <rect class="cls-2" x="250" y="50" width="50" height="50" shape-rendering="crispEdges"/>
      <rect class="cls-2" y="100" width="50" height="50" shape-rendering="crispEdges"/>
      <rect class="cls-2" x="250" y="100" width="50" height="50" shape-rendering="crispEdges"/>
      <rect class="cls-2" y="150" width="50" height="50" shape-rendering="crispEdges"/>
      <rect class="cls-2" x="250" y="150" width="50" height="50" shape-rendering="crispEdges"/>
      <rect class="cls-2" y="200" width="50" height="50" shape-rendering="crispEdges"/>
      <rect class="cls-2" x="250" y="200" width="50" height="50" shape-rendering="crispEdges"/>
      <rect class="cls-2" y="250" width="300" height="50" shape-rendering="crispEdges"/>
    </g>
  </g>
</svg>